<?xml version="1.0" encoding="UTF-8" standalone="no"?>
<!-- Created with Inkscape (http://www.inkscape.org/) -->

<svg
   xmlns:dc="http://purl.org/dc/elements/1.1/"
   xmlns:cc="http://creativecommons.org/ns#"
   xmlns:rdf="http://www.w3.org/1999/02/22-rdf-syntax-ns#"
   xmlns:svg="http://www.w3.org/2000/svg"
   xmlns="http://www.w3.org/2000/svg"
   xmlns:sodipodi="http://sodipodi.sourceforge.net/DTD/sodipodi-0.dtd"
   xmlns:inkscape="http://www.inkscape.org/namespaces/inkscape"
   width="400"
   height="230"
   viewBox="0 0 105.83334 60.854145"
   version="1.1"
   id="svg1349"
   inkscape:version="0.92.3 (2405546, 2018-03-11)"
   sodipodi:docname="logo.svg">
  <defs
     id="defs1343" />
  <sodipodi:namedview
     id="base"
     pagecolor="#ffffff"
     bordercolor="#666666"
     borderopacity="1.0"
     inkscape:pageopacity="0"
     inkscape:pageshadow="2"
     inkscape:zoom="1.4"
     inkscape:cx="110.89581"
     inkscape:cy="116.85416"
     inkscape:document-units="mm"
     inkscape:current-layer="layer1"
     showgrid="false"
     fit-margin-top="0"
     fit-margin-left="0"
     fit-margin-right="0"
     fit-margin-bottom="0"
     inkscape:window-width="1920"
     inkscape:window-height="1002"
     inkscape:window-x="0"
     inkscape:window-y="0"
     inkscape:window-maximized="1"
     units="px" />
  <metadata
     id="metadata1346">
    <rdf:RDF>
      <cc:Work
         rdf:about="">
        <dc:format>image/svg+xml</dc:format>
        <dc:type
           rdf:resource="http://purl.org/dc/dcmitype/StillImage" />
        <dc:title></dc:title>
      </cc:Work>
    </rdf:RDF>
  </metadata>
  <g
     inkscape:label="Layer 1"
     inkscape:groupmode="layer"
     id="layer1"
     transform="translate(39.688077,-223.92681)">
    <g
       aria-label="ILLUSION"
       transform="matrix(0.75380251,0,0,0.75380251,-122.3688,-118.76043)"
       style="font-style:normal;font-weight:normal;line-height:0.01%;font-family:sans-serif;letter-spacing:0px;word-spacing:0px;opacity:1;fill:#000000;fill-opacity:1;stroke:none;stroke-width:1px;stroke-linecap:butt;stroke-linejoin:miter;stroke-opacity:1"
       id="flowRoot3577">
      <path
         d="m 111.84985,482.1184 h -0.41 V 458.202 h 0.41 z"
         style="font-style:normal;font-variant:normal;font-weight:100;font-stretch:normal;font-size:34.16628647px;line-height:1.25;font-family:Lato;-inkscape-font-specification:'Lato Thin';opacity:1;fill:#000000"
         id="path2021"
         inkscape:connector-curvature="0" />
      <path
         d="m 120.19123,481.74257 h 12.19736 v 0.37583 H 119.78123 V 458.202 h 0.41 z"
         style="font-style:normal;font-variant:normal;font-weight:100;font-stretch:normal;font-size:34.16628647px;line-height:1.25;font-family:Lato;-inkscape-font-specification:'Lato Thin';opacity:1;fill:#000000"
         id="path2023"
         inkscape:connector-curvature="0" />
      <path
         d="m 137.27437,481.74257 h 12.19736 v 0.37583 H 136.86437 V 458.202 h 0.41 z"
         style="font-style:normal;font-variant:normal;font-weight:100;font-stretch:normal;font-size:34.16628647px;line-height:1.25;font-family:Lato;-inkscape-font-specification:'Lato Thin';opacity:1;fill:#000000"
         id="path2025"
         inkscape:connector-curvature="0" />
      <path
         d="m 160.94947,482.05006 q 1.93039,0 3.45079,-0.68332 1.53749,-0.70041 2.59664,-1.89623 1.05916,-1.19582 1.6229,-2.80164 0.56374,-1.60581 0.56374,-3.43371 V 458.202 h 0.41 v 15.03316 q 0,1.89623 -0.59791,3.57038 -0.59791,1.67415 -1.7254,2.92122 -1.12749,1.24707 -2.7333,1.98164 -1.58873,0.71749 -3.58746,0.71749 -1.99873,0 -3.60455,-0.71749 -1.58873,-0.73457 -2.71622,-1.98164 -1.12748,-1.24707 -1.72539,-2.92122 -0.59791,-1.67415 -0.59791,-3.57038 V 458.202 h 0.40999 v 14.999 q 0,1.82789 0.56375,3.45079 0.56374,1.60582 1.6229,2.81872 1.05915,1.19582 2.57955,1.89623 1.53748,0.68332 3.46788,0.68332 z"
         style="font-style:normal;font-variant:normal;font-weight:100;font-stretch:normal;font-size:34.16628647px;line-height:1.25;font-family:Lato;-inkscape-font-specification:'Lato Thin';opacity:1;fill:#000000"
         id="path2027"
         inkscape:connector-curvature="0" />
      <path
         d="m 188.30652,460.38864 q -0.0513,0.1025 -0.17083,0.1025 -0.11958,0 -0.29042,-0.15375 -0.17083,-0.17083 -0.44416,-0.41 -0.27333,-0.25624 -0.68332,-0.54666 -0.39291,-0.29041 -0.95666,-0.52957 -0.56374,-0.25625 -1.29832,-0.41 -0.73457,-0.17083 -1.69123,-0.17083 -1.46915,0 -2.61372,0.46124 -1.12749,0.44417 -1.89623,1.19582 -0.76874,0.75166 -1.17874,1.74248 -0.39291,0.99083 -0.39291,2.06706 0,1.38374 0.52958,2.30623 0.54666,0.92249 1.4179,1.55456 0.87124,0.63208 1.99873,1.05916 1.12749,0.40999 2.28914,0.80291 1.16165,0.37583 2.28914,0.80291 1.12749,0.42707 1.99873,1.09332 0.87124,0.64916 1.40082,1.62289 0.54666,0.95666 0.54666,2.40873 0,1.46915 -0.49541,2.75038 -0.49542,1.26416 -1.43499,2.22081 -0.93957,0.93958 -2.30622,1.48624 -1.36665,0.54666 -3.10913,0.54666 -1.21291,0 -2.16956,-0.22208 -0.95666,-0.205 -1.75957,-0.59791 -0.78582,-0.41 -1.45206,-0.97374 -0.66625,-0.58083 -1.28124,-1.31541 l 0.0683,-0.0683 q 0.0512,-0.0513 0.0854,-0.0683 0.0342,-0.0342 0.11958,-0.0342 0.1025,0 0.29041,0.22208 0.205,0.205 0.54666,0.54666 0.34167,0.32458 0.81999,0.70041 0.47833,0.37583 1.16166,0.7175 0.68332,0.32458 1.55456,0.54666 0.88833,0.20499 2.01582,0.20499 1.65706,0 2.9383,-0.52957 1.29831,-0.52958 2.18664,-1.4179 0.9054,-0.90541 1.36665,-2.10123 0.47833,-1.19582 0.47833,-2.54539 0,-1.12749 -0.35875,-1.94748 -0.34166,-0.81999 -0.93957,-1.40082 -0.59791,-0.59791 -1.40082,-1.0079 -0.78582,-0.42708 -1.69123,-0.75166 -0.90541,-0.34166 -1.84498,-0.61499 -0.93957,-0.29042 -1.84498,-0.63208 -0.90541,-0.34166 -1.70831,-0.76874 -0.78583,-0.44416 -1.38374,-1.05916 -0.59791,-0.63207 -0.95665,-1.48623 -0.34167,-0.87124 -0.34167,-2.04998 0,-1.14457 0.42708,-2.18664 0.42708,-1.05915 1.24707,-1.86206 0.81999,-0.80291 2.01581,-1.28124 1.21291,-0.47832 2.76747,-0.47832 1.74248,0 3.07497,0.56374 1.34957,0.56374 2.5283,1.79373 z"
         style="font-style:normal;font-variant:normal;font-weight:100;font-stretch:normal;font-size:34.16628647px;line-height:1.25;font-family:Lato;-inkscape-font-specification:'Lato Thin';opacity:1;fill:#000000"
         id="path2029"
         inkscape:connector-curvature="0" />
      <path
         d="m 195.73075,482.1184 h -0.40999 V 458.202 h 0.40999 z"
         style="font-style:normal;font-variant:normal;font-weight:100;font-stretch:normal;font-size:34.16628647px;line-height:1.25;font-family:Lato;-inkscape-font-specification:'Lato Thin';opacity:1;fill:#000000"
         id="path2031"
         inkscape:connector-curvature="0" />
      <path
         d="m 224.14482,470.1602 q 0,2.8358 -0.81999,5.09077 -0.80291,2.25498 -2.27206,3.84371 -1.45206,1.57165 -3.48496,2.42581 -2.03289,0.83707 -4.49286,0.83707 -2.44289,0 -4.47579,-0.83707 -2.01581,-0.85416 -3.48496,-2.42581 -1.45207,-1.58873 -2.27206,-3.84371 -0.8029,-2.25497 -0.8029,-5.09077 0,-2.81872 0.8029,-5.0737 0.81999,-2.27206 2.27206,-3.86079 1.46915,-1.58873 3.48496,-2.44289 2.0329,-0.85415 4.47579,-0.85415 2.45997,0 4.49286,0.85415 2.0329,0.83708 3.48496,2.42581 1.46915,1.58873 2.27206,3.86079 0.81999,2.25497 0.81999,5.09078 z m -0.44416,0 q 0,-2.78456 -0.78582,-4.98828 -0.76874,-2.20373 -2.16956,-3.74121 -1.40082,-1.53748 -3.36538,-2.34039 -1.94748,-0.81999 -4.30495,-0.81999 -2.32331,0 -4.27079,0.81999 -1.94748,0.80291 -3.36538,2.34039 -1.40082,1.53748 -2.20372,3.74121 -0.78583,2.20372 -0.78583,4.98828 0,2.78455 0.78583,4.98827 0.8029,2.18665 2.20372,3.72413 1.4179,1.5204 3.36538,2.34039 1.94748,0.80291 4.27079,0.80291 2.35747,0 4.30495,-0.80291 1.96456,-0.81999 3.36538,-2.34039 1.40082,-1.53748 2.16956,-3.72413 0.78582,-2.20372 0.78582,-4.98827 z"
         style="font-style:normal;font-variant:normal;font-weight:100;font-stretch:normal;font-size:34.16628647px;line-height:1.25;font-family:Lato;-inkscape-font-specification:'Lato Thin';opacity:1;fill:#000000"
         id="path2033"
         inkscape:connector-curvature="0" />
      <path
         d="m 230.55794,458.202 q 0.15375,0 0.23916,0.13666 l 16.9294,23.04516 q -0.0171,-0.0854 -0.0171,-0.17083 0,-0.1025 0,-0.18791 V 458.202 h 0.34166 v 23.9164 h -0.1025 q -0.1025,0 -0.18792,-0.11959 l -17.01481,-23.14765 q 0,0.10249 0,0.22208 0.0171,0.1025 0.0171,0.18791 v 22.85725 h -0.34167 V 458.202 h 0.13667 z"
         style="font-style:normal;font-variant:normal;font-weight:100;font-stretch:normal;font-size:34.16628647px;line-height:1.25;font-family:Lato;-inkscape-font-specification:'Lato Thin';opacity:1;fill:#000000"
         id="path2035"
         inkscape:connector-curvature="0" />
    </g>
    <g
       aria-label="ENGINE"
       transform="matrix(0.57231914,0,0,0.57231914,-195.23926,-10.550686)"
       style="font-style:normal;font-weight:normal;line-height:0.01%;font-family:sans-serif;letter-spacing:9.00766373px;word-spacing:0px;opacity:1;fill:#000000;fill-opacity:1;stroke:none;stroke-width:1px;stroke-linecap:butt;stroke-linejoin:miter;stroke-opacity:1"
       id="flowRoot3585">
      <path
         d="m 311.4023,453.11588 v 0.41983 h -3.67965 v 2.82518 h 3.06226 v 0.40995 h -3.06226 v 2.91409 h 3.68953 l -0.01,0.41982 h -4.18838 v -6.98887 z"
         style="font-style:normal;font-variant:normal;font-weight:300;font-stretch:normal;font-size:9.87826252px;line-height:1.25;font-family:Lato;-inkscape-font-specification:'Lato Light';letter-spacing:15.80521965px;opacity:1;fill:#000000"
         id="path2008"
         inkscape:connector-curvature="0" />
      <path
         d="m 329.0012,453.11588 q 0.0692,0 0.10372,0.0198 0.0395,0.0148 0.084,0.0741 l 4.52919,6.05537 q -0.0148,-0.14817 -0.0148,-0.28647 v -5.86275 h 0.43958 v 6.98887 h -0.23707 q -0.0642,0 -0.10867,-0.0198 -0.0395,-0.0247 -0.079,-0.079 l -4.53906,-6.06031 q 0.0148,0.14817 0.0148,0.27659 v 5.8825 h -0.44452 v -6.98887 h 0.2519 z"
         style="font-style:normal;font-variant:normal;font-weight:300;font-stretch:normal;font-size:9.87826252px;line-height:1.25;font-family:Lato;-inkscape-font-specification:'Lato Light';letter-spacing:15.80521965px;opacity:1;fill:#000000"
         id="path2010"
         inkscape:connector-curvature="0" />
      <path
         d="m 357.60232,459.41821 q -0.52355,0.37044 -1.11624,0.568 -0.5927,0.19757 -1.33357,0.19757 -0.82977,0 -1.49162,-0.2519 -0.66184,-0.25683 -1.13106,-0.72111 -0.46428,-0.46922 -0.71617,-1.13106 -0.24696,-0.66184 -0.24696,-1.47186 0,-0.81002 0.24202,-1.46692 0.24696,-0.66185 0.70136,-1.12613 0.45933,-0.46921 1.10636,-0.72111 0.64703,-0.25683 1.45704,-0.25683 0.40007,0 0.73594,0.0543 0.3408,0.0543 0.6322,0.16299 0.29141,0.10372 0.54331,0.26177 0.25189,0.15311 0.48403,0.35562 l -0.13829,0.21732 q -0.0691,0.11854 -0.20745,0.0543 -0.0741,-0.0296 -0.21238,-0.13829 -0.13829,-0.10867 -0.38031,-0.2272 -0.24202,-0.11854 -0.60258,-0.21239 -0.35561,-0.0938 -0.86928,-0.0938 -0.6816,0 -1.23479,0.21732 -0.54824,0.21732 -0.93843,0.62233 -0.38525,0.40501 -0.59764,0.98783 -0.20744,0.58282 -0.20744,1.30887 0,0.73593 0.20744,1.32369 0.21239,0.58775 0.60752,0.9977 0.40007,0.40995 0.96807,0.62727 0.568,0.21732 1.27923,0.21732 0.31117,0 0.57294,-0.0346 0.26671,-0.0395 0.50379,-0.1136 0.24202,-0.0741 0.46428,-0.17781 0.2272,-0.10866 0.45934,-0.24202 v -1.88181 h -1.3385 q -0.0543,0 -0.0939,-0.0346 -0.0346,-0.0346 -0.0346,-0.079 v -0.27659 h 1.92626 v 2.48438 z"
         style="font-style:normal;font-variant:normal;font-weight:300;font-stretch:normal;font-size:9.87826252px;line-height:1.25;font-family:Lato;-inkscape-font-specification:'Lato Light';letter-spacing:15.80521965px;opacity:1;fill:#000000"
         id="path2012"
         inkscape:connector-curvature="0" />
      <path
         d="m 375.5894,460.10475 h -0.50873 v -6.98887 h 0.50873 z"
         style="font-style:normal;font-variant:normal;font-weight:300;font-stretch:normal;font-size:9.87826252px;line-height:1.25;font-family:Lato;-inkscape-font-specification:'Lato Light';letter-spacing:15.80521965px;opacity:1;fill:#000000"
         id="path2014"
         inkscape:connector-curvature="0" />
      <path
         d="m 393.70381,453.11588 q 0.0692,0 0.10373,0.0198 0.0395,0.0148 0.084,0.0741 l 4.52918,6.05537 q -0.0148,-0.14817 -0.0148,-0.28647 v -5.86275 h 0.43958 v 6.98887 h -0.23708 q -0.0642,0 -0.10866,-0.0198 -0.0395,-0.0247 -0.079,-0.079 l -4.53906,-6.06031 q 0.0148,0.14817 0.0148,0.27659 v 5.8825 h -0.44452 v -6.98887 h 0.25189 z"
         style="font-style:normal;font-variant:normal;font-weight:300;font-stretch:normal;font-size:9.87826252px;line-height:1.25;font-family:Lato;-inkscape-font-specification:'Lato Light';letter-spacing:15.80521965px;opacity:1;fill:#000000"
         id="path2016"
         inkscape:connector-curvature="0" />
      <path
         d="m 420.9121,453.11588 v 0.41983 h -3.67965 v 2.82518 h 3.06226 v 0.40995 h -3.06226 v 2.91409 h 3.68953 l -0.01,0.41982 h -4.18838 v -6.98887 z"
         style="font-style:normal;font-variant:normal;font-weight:300;font-stretch:normal;font-size:9.87826252px;line-height:1.25;font-family:Lato;-inkscape-font-specification:'Lato Light';letter-spacing:15.80521965px;opacity:1;fill:#000000"
         id="path2018"
         inkscape:connector-curvature="0" />
    </g>
    <g
       transform="matrix(0.75380251,0,0,0.75380251,-310.31801,-241.08436)"
       id="g6257">
      <g
         style="opacity:1;stroke-width:0.2749894;stroke-miterlimit:4;stroke-dasharray:none"
         transform="matrix(0.47816115,0.82819936,-0.82819936,0.47816115,770.09602,233.99953)"
         id="g6237">
        <path
           style="opacity:1;fill:none;fill-rule:evenodd;stroke:#000000;stroke-width:0.2749894;stroke-linecap:round;stroke-linejoin:round;stroke-miterlimit:4;stroke-dasharray:none;stroke-opacity:1"
           d="m 233.19189,541.8583 -13.97238,-24.37984 -16.9439,29.3477 1.08004,1.87068"
           id="path6231"
           inkscape:connector-curvature="0"
           sodipodi:nodetypes="cccc" />
      </g>
      <g
         id="g6245"
         transform="matrix(-0.95632226,2.3002782e-8,-2.3002782e-8,-0.95632226,642.0957,1188.4777)"
         style="opacity:1;stroke-width:0.2749894;stroke-miterlimit:4;stroke-dasharray:none">
        <path
           sodipodi:nodetypes="cccc"
           inkscape:connector-curvature="0"
           id="path6243"
           d="m 233.19189,541.8583 -13.97238,-24.37984 -16.9439,29.3477 1.08004,1.87068"
           style="opacity:1;fill:none;fill-rule:evenodd;stroke:#000000;stroke-width:0.2749894;stroke-linecap:round;stroke-linejoin:round;stroke-miterlimit:4;stroke-dasharray:none;stroke-opacity:1" />
      </g>
      <g
         style="opacity:1;stroke-width:0.2749894;stroke-miterlimit:4;stroke-dasharray:none"
         transform="matrix(0.47816111,-0.82819938,0.82819938,0.47816111,-120.44939,600.24802)"
         id="g6249">
        <path
           style="opacity:1;fill:none;fill-rule:evenodd;stroke:#000000;stroke-width:0.2749894;stroke-linecap:round;stroke-linejoin:round;stroke-miterlimit:4;stroke-dasharray:none;stroke-opacity:1"
           d="m 233.19189,541.8583 -13.97238,-24.37984 -16.9439,29.3477 1.08004,1.87068"
           id="path6247"
           inkscape:connector-curvature="0"
           sodipodi:nodetypes="cccc" />
      </g>
    </g>
  </g>
</svg>
